<?xml version="1.0" encoding="UTF-8" standalone="no"?>
<!DOCTYPE svg PUBLIC "-//W3C//DTD SVG 1.1//EN"
 "http://www.w3.org/Graphics/SVG/1.1/DTD/svg11.dtd">
<!-- Generated by graphviz version 2.40.1 (20161225.0304)
 -->
<!-- Title: dependencies Pages: 1 -->
<svg width="652pt" height="284pt"
 viewBox="0.00 0.00 652.00 284.00" xmlns="http://www.w3.org/2000/svg" xmlns:xlink="http://www.w3.org/1999/xlink">
<g id="graph0" class="graph" transform="scale(1 1) rotate(0) translate(4 280)">
<title>dependencies</title>
<polygon fill="#ffffff" stroke="transparent" points="-4,4 -4,-280 648,-280 648,4 -4,4"/>
<text text-anchor="start" x="301.0091" y="-42.4" font-family="sans-serif" font-weight="bold" font-size="14.00" fill="#000000">Legend</text>
<polygon fill="#ffffb3" stroke="transparent" points="88,-10 88,-30 108,-30 108,-10 88,-10"/>
<text text-anchor="start" x="111.629" y="-15.4" font-family="sans-serif" font-size="14.00" fill="#000000"> &#160;Declarations</text>
<polygon fill="#8dd3c7" stroke="transparent" points="201,-10 201,-30 221,-30 221,-10 201,-10"/>
<text text-anchor="start" x="224.7251" y="-15.4" font-family="sans-serif" font-size="14.00" fill="#000000"> &#160;Module</text>
<polygon fill="#80b1d3" stroke="transparent" points="287,-10 287,-30 307,-30 307,-10 287,-10"/>
<text text-anchor="start" x="310.7812" y="-15.4" font-family="sans-serif" font-size="14.00" fill="#000000"> &#160;Bootstrap</text>
<polygon fill="#fdb462" stroke="transparent" points="384,-10 384,-30 404,-30 404,-10 384,-10"/>
<text text-anchor="start" x="407.6732" y="-15.4" font-family="sans-serif" font-size="14.00" fill="#000000"> &#160;Providers</text>
<polygon fill="#fb8072" stroke="transparent" points="480,-10 480,-30 500,-30 500,-10 480,-10"/>
<text text-anchor="start" x="503.7258" y="-15.4" font-family="sans-serif" font-size="14.00" fill="#000000"> &#160;Exports</text>
<g id="clust1" class="cluster">
<title>cluster_AppModule</title>
<polygon fill="none" stroke="#000000" stroke-dasharray="1,5" points="8,-70 8,-268 298,-268 298,-70 8,-70"/>
</g>
<g id="clust2" class="cluster">
<title>cluster_AppModule_declarations</title>
<polygon fill="none" stroke="#000000" points="168,-78 168,-130 290,-130 290,-78 168,-78"/>
</g>
<g id="clust4" class="cluster">
<title>cluster_AppModule_imports</title>
<polygon fill="none" stroke="#000000" points="16,-78 16,-130 160,-130 160,-78 16,-78"/>
</g>
<g id="clust6" class="cluster">
<title>cluster_AppModule_bootstrap</title>
<polygon fill="none" stroke="#000000" points="96,-208 96,-260 220,-260 220,-208 96,-208"/>
</g>
<g id="clust14" class="cluster">
<title>cluster_MovieDetailsPageModule</title>
<polygon fill="none" stroke="#000000" stroke-dasharray="1,5" points="306,-70 306,-195 484,-195 484,-70 306,-70"/>
</g>
<g id="clust15" class="cluster">
<title>cluster_MovieDetailsPageModule_declarations</title>
<polygon fill="none" stroke="#000000" points="327,-78 327,-130 463,-130 463,-78 327,-78"/>
</g>
<g id="clust21" class="cluster">
<title>cluster_MoviesPageModule</title>
<polygon fill="none" stroke="#000000" stroke-dasharray="1,5" points="492,-70 492,-195 636,-195 636,-70 492,-70"/>
</g>
<g id="clust22" class="cluster">
<title>cluster_MoviesPageModule_declarations</title>
<polygon fill="none" stroke="#000000" points="513,-78 513,-130 615,-130 615,-78 513,-78"/>
</g>
<!-- AppComponent -->
<g id="node1" class="node">
<title>AppComponent</title>
<polygon fill="#ffffb3" stroke="#000000" points="281.9399,-122 176.0601,-122 176.0601,-86 281.9399,-86 281.9399,-122"/>
<text text-anchor="middle" x="229" y="-99.8" font-family="Times,serif" font-size="14.00" fill="#000000">AppComponent</text>
</g>
<!-- AppModule -->
<g id="node2" class="node">
<title>AppModule</title>
<polygon fill="#8dd3c7" stroke="#000000" points="199.6571,-187 196.6571,-191 175.6571,-191 172.6571,-187 116.3429,-187 116.3429,-151 199.6571,-151 199.6571,-187"/>
<text text-anchor="middle" x="158" y="-164.8" font-family="Times,serif" font-size="14.00" fill="#000000">AppModule</text>
</g>
<!-- AppComponent&#45;&gt;AppModule -->
<g id="edge1" class="edge">
<title>AppComponent&#45;&gt;AppModule</title>
<path fill="none" stroke="#000000" d="M188.0544,-122.1061C188.0544,-122.1061 188.0544,-140.991 188.0544,-140.991"/>
<polygon fill="#000000" stroke="#000000" points="184.5544,-140.9909 188.0544,-150.991 191.5544,-140.991 184.5544,-140.9909"/>
</g>
<!-- AppComponent  -->
<g id="node4" class="node">
<title>AppComponent </title>
<polygon fill="#80b1d3" stroke="#000000" points="212.439,-252 103.561,-252 103.561,-216 212.439,-216 212.439,-252"/>
<text text-anchor="middle" x="158" y="-229.8" font-family="Times,serif" font-size="14.00" fill="#000000">AppComponent </text>
</g>
<!-- AppModule&#45;&gt;AppComponent  -->
<g id="edge3" class="edge">
<title>AppModule&#45;&gt;AppComponent </title>
<path fill="none" stroke="#000000" stroke-dasharray="1,5" d="M158,-187.1061C158,-187.1061 158,-205.991 158,-205.991"/>
<polygon fill="#000000" stroke="#000000" points="154.5001,-205.9909 158,-215.991 161.5001,-205.991 154.5001,-205.9909"/>
</g>
<!-- AppRoutingModule -->
<g id="node3" class="node">
<title>AppRoutingModule</title>
<polygon fill="#8dd3c7" stroke="#000000" points="152.2744,-122 149.2744,-126 128.2744,-126 125.2744,-122 23.7256,-122 23.7256,-86 152.2744,-86 152.2744,-122"/>
<text text-anchor="middle" x="88" y="-99.8" font-family="Times,serif" font-size="14.00" fill="#000000">AppRoutingModule</text>
</g>
<!-- AppRoutingModule&#45;&gt;AppModule -->
<g id="edge2" class="edge">
<title>AppRoutingModule&#45;&gt;AppModule</title>
<path fill="none" stroke="#000000" d="M134.2795,-122.1061C134.2795,-122.1061 134.2795,-140.991 134.2795,-140.991"/>
<polygon fill="#000000" stroke="#000000" points="130.7795,-140.9909 134.2795,-150.991 137.7795,-140.991 130.7795,-140.9909"/>
</g>
<!-- MovieDetailsPage -->
<g id="node5" class="node">
<title>MovieDetailsPage</title>
<polygon fill="#ffffb3" stroke="#000000" points="454.9145,-122 335.0855,-122 335.0855,-86 454.9145,-86 454.9145,-122"/>
<text text-anchor="middle" x="395" y="-99.8" font-family="Times,serif" font-size="14.00" fill="#000000">MovieDetailsPage</text>
</g>
<!-- MovieDetailsPageModule -->
<g id="node6" class="node">
<title>MovieDetailsPageModule</title>
<polygon fill="#8dd3c7" stroke="#000000" points="476.4636,-187 473.4636,-191 452.4636,-191 449.4636,-187 313.5364,-187 313.5364,-151 476.4636,-151 476.4636,-187"/>
<text text-anchor="middle" x="395" y="-164.8" font-family="Times,serif" font-size="14.00" fill="#000000">MovieDetailsPageModule</text>
</g>
<!-- MovieDetailsPage&#45;&gt;MovieDetailsPageModule -->
<g id="edge4" class="edge">
<title>MovieDetailsPage&#45;&gt;MovieDetailsPageModule</title>
<path fill="none" stroke="#000000" d="M395,-122.1061C395,-122.1061 395,-140.991 395,-140.991"/>
<polygon fill="#000000" stroke="#000000" points="391.5001,-140.9909 395,-150.991 398.5001,-140.991 391.5001,-140.9909"/>
</g>
<!-- MoviesPage -->
<g id="node7" class="node">
<title>MoviesPage</title>
<polygon fill="#ffffb3" stroke="#000000" points="606.7065,-122 521.2935,-122 521.2935,-86 606.7065,-86 606.7065,-122"/>
<text text-anchor="middle" x="564" y="-99.8" font-family="Times,serif" font-size="14.00" fill="#000000">MoviesPage</text>
</g>
<!-- MoviesPageModule -->
<g id="node8" class="node">
<title>MoviesPageModule</title>
<polygon fill="#8dd3c7" stroke="#000000" points="628.2562,-187 625.2562,-191 604.2562,-191 601.2562,-187 499.7438,-187 499.7438,-151 628.2562,-151 628.2562,-187"/>
<text text-anchor="middle" x="564" y="-164.8" font-family="Times,serif" font-size="14.00" fill="#000000">MoviesPageModule</text>
</g>
<!-- MoviesPage&#45;&gt;MoviesPageModule -->
<g id="edge5" class="edge">
<title>MoviesPage&#45;&gt;MoviesPageModule</title>
<path fill="none" stroke="#000000" d="M564,-122.1061C564,-122.1061 564,-140.991 564,-140.991"/>
<polygon fill="#000000" stroke="#000000" points="560.5001,-140.9909 564,-150.991 567.5001,-140.991 560.5001,-140.9909"/>
</g>
</g>
</svg>
